PathFileType	4	(X/Y/Z)	E:\3-PhD\Data\MocapData\ElaboratedData\009\pre\dynamicElaborations\RunL1\RunL1.trc
DataRate	CameraRate	NumFrames	NumMarkers	Units	OrigDataRate	DataStartFrame
200	200	5	54	mm	200	438
Frame#	Time	FHD			LBHD			RBHD			C7			T10			CLAV			LSHO			LUUPA			LMUPA			LDUPA			LLEP			LMEP			LRAD			LUL			LRFIN			RSHO			RUPA1			RMUPA			RDUPA			RLEP			RMEP			RRAD			RUL			RUFIN			RASI			USACR			LSACR			RSACR			LTHI1			LTHI2			LTHI3			LTHI4			LTIB1			LTIB2			LTIB3			LTIB4			LLMAL			LHEE			LMT1			LMT2			RTHI			RTHI2			RTHI3			RTHI4			RLFC			RTIB1			RTIB2			RTIB3			RTIB4			RLMAL			RHEE			RMT1			RMT2			RMT5		
		X1	Y1	Z1	X2	Y2	Z2	X3	Y3	Z3	X4	Y4	Z4	X5	Y5	Z5	X6	Y6	Z6	X7	Y7	Z7	X8	Y8	Z8	X9	Y9	Z9	X10	Y10	Z10	X11	Y11	Z11	X12	Y12	Z12	X13	Y13	Z13	X14	Y14	Z14	X15	Y15	Z15	X16	Y16	Z16	X17	Y17	Z17	X18	Y18	Z18	X19	Y19	Z19	X20	Y20	Z20	X21	Y21	Z21	X22	Y22	Z22	X23	Y23	Z23	X24	Y24	Z24	X25	Y25	Z25	X26	Y26	Z26	X27	Y27	Z27	X28	Y28	Z28	X29	Y29	Z29	X30	Y30	Z30	X31	Y31	Z31	X32	Y32	Z32	X33	Y33	Z33	X34	Y34	Z34	X35	Y35	Z35	X36	Y36	Z36	X37	Y37	Z37	X38	Y38	Z38	X39	Y39	Z39	X40	Y40	Z40	X41	Y41	Z41	X42	Y42	Z42	X43	Y43	Z43	X44	Y44	Z44	X45	Y45	Z45	X46	Y46	Z46	X47	Y47	Z47	X48	Y48	Z48	X49	Y49	Z49	X50	Y50	Z50	X51	Y51	Z51	X52	Y52	Z52	X53	Y53	Z53	X54	Y54	Z54	

438	2.185000	-2841.004468	1487.861295	417.214444	-3004.549083	1558.834187	326.937750	-2974.453471	1532.959005	452.508925	-3110.081554	1432.668090	377.514042	-3311.359578	1139.969617	398.307215	-3017.398870	1296.336018	347.658202	-3033.582182	1369.373040	212.277186	-3188.948678	1387.416267	104.739892	-3210.451691	1343.349574	92.930387	-3253.671996	1384.603215	82.389669	-3368.847580	1389.598179	52.309126	-3392.161884	1391.900290	120.018805	-3526.010329	1184.274548	20.099150	-3582.057255	1229.161185	-3.438241	-3542.779375	1137.886521	-38.526962	-3031.862778	1406.821566	491.375990	-2983.621994	1278.933437	597.464461	-2943.745631	1264.385550	580.910781	-2952.826709	1222.163387	623.844525	-2885.417042	1102.834918	647.304857	-2913.917241	1061.988020	588.873456	-2795.235675	1282.133813	480.021659	-2738.057903	1256.266281	503.590757	-2769.127132	1351.449344	511.225989	-3252.379775	902.513096	497.461466	-3358.086213	1066.230835	388.850959	-3376.382088	1040.024833	359.569164	-3375.395417	1037.751801	418.667413	-3155.587238	810.251532	184.969097	-3073.101036	789.827299	193.959886	-3049.851265	825.188702	216.963856	-3048.265826	732.423828	201.149792	-2984.666712	515.834524	264.192925	-3058.942996	517.714830	217.793055	-3030.225171	492.242792	237.221078	-3077.472562	427.617094	268.232517	-3214.239385	335.690799	259.335763	-3305.933510	337.467016	303.716961	-3121.028994	217.832852	330.941202	-3117.177836	216.817587	283.923252	-3437.634105	711.741750	547.651749	-3441.792787	646.005425	538.139949	-3416.269334	626.607977	527.344349	-3516.466103	605.828260	518.706169	-3571.017034	511.743225	502.355576	-3693.605940	326.191187	467.011574	-3793.748960	322.852194	510.512054	-3765.460048	287.801904	493.114512	-3796.320083	248.677003	462.018121	-3905.013223	226.339901	499.662059	-3976.036268	257.747939	452.933372	-3870.676389	72.940635	410.757932	-3871.331641	70.799251	453.114841	-3913.275359	79.839451	509.684084	
439	2.190000	-2812.725452	1489.413112	414.654723	-2976.482761	1561.173230	325.073094	-2945.955941	1534.716280	450.280564	-3082.273220	1434.760294	375.956147	-3282.704795	1141.927733	400.266010	-2989.493770	1299.044683	345.259427	-3006.519597	1371.521307	210.262015	-3162.404597	1389.557422	104.324168	-3184.063855	1345.594126	92.776618	-3227.489015	1386.797568	82.964948	-3343.082287	1391.553742	54.248798	-3365.459249	1392.904814	122.113701	-3496.287548	1182.731834	22.236201	-3553.529890	1226.445154	-0.923381	-3512.553991	1135.982043	-36.363442	-3003.424148	1409.632901	488.732431	-2956.668582	1282.132181	596.638556	-2916.530814	1267.520411	581.135366	-2926.644300	1225.356766	623.603322	-2859.977579	1105.499741	648.072606	-2889.154331	1064.024185	590.224400	-2772.155544	1283.808310	477.820133	-2714.781580	1257.937688	500.839681	-2745.622300	1353.083554	508.529505	-3221.573604	903.397251	497.239009	-3328.384688	1068.269054	391.809055	-3346.941396	1042.147966	362.822909	-3345.180259	1039.610231	421.889244	-3127.772786	814.683914	184.846287	-3045.321250	794.203752	193.245927	-3021.850773	829.550790	216.037856	-3020.380451	736.827120	200.025175	-2946.568149	516.752768	262.451815	-3020.881445	513.287872	216.271935	-2990.322698	489.936919	235.685772	-3032.850521	422.278823	267.560055	-3163.274264	320.952241	260.610346	-3254.701707	315.687178	305.697645	-3060.846602	211.258744	332.445487	-3057.275864	209.984925	285.513070	-3408.090562	714.220255	547.216702	-3413.604963	648.640414	535.753055	-3388.689018	629.162965	523.921334	-3489.635490	610.544906	517.084854	-3547.038555	518.561777	499.524617	-3673.170071	334.695586	465.791027	-3772.842970	332.274046	510.663289	-3745.056696	296.909155	492.832863	-3776.529655	257.824566	462.295986	-3884.733214	237.218517	501.184890	-3952.856807	273.947916	454.755950	-3863.875996	79.661525	411.359135	-3864.296852	76.943342	453.776037	-3905.467681	90.388831	509.982245	
440	2.195000	-2784.280092	1491.077120	412.231757	-2948.285211	1563.361412	323.264592	-2917.354001	1536.408627	448.058695	-3054.401592	1436.787836	374.403498	-3254.168192	1144.149399	401.775115	-2961.529478	1301.632471	342.957528	-2979.499709	1373.459545	208.243592	-3136.084173	1391.050057	103.957886	-3157.740473	1347.140180	92.605996	-3201.465047	1388.181403	83.467676	-3317.452507	1392.239317	55.924875	-3339.023554	1392.719654	123.896067	-3465.903018	1179.512458	24.434258	-3524.378291	1221.785439	1.461358	-3481.382228	1132.259470	-34.036670	-2974.738939	1412.132448	486.591189	-2930.246135	1284.450423	596.108853	-2889.868192	1269.598088	581.838252	-2901.397476	1227.521944	623.735924	-2836.018230	1106.784130	648.824978	-2866.019165	1065.045251	591.513449	-2748.541820	1283.203818	475.924010	-2691.252417	1256.843208	498.580092	-2721.012269	1352.222849	506.172084	-3190.968283	904.822265	497.063829	-3298.879566	1070.637544	394.303658	-3317.610343	1044.559467	365.585099	-3315.197674	1041.794705	424.596262	-3100.454114	818.076504	184.652476	-3018.048674	797.464396	192.427220	-2994.248811	832.755588	214.936416	-2993.064560	740.069981	198.712472	-2909.589242	516.725416	260.617560	-2983.432510	507.873351	214.498400	-2951.278188	486.828519	234.045121	-2989.043618	416.602219	266.850644	-3112.503715	306.518072	261.854269	-3203.224555	294.574884	307.516193	-3001.838928	205.637158	334.187205	-2998.440891	203.949798	287.372744	-3377.995476	716.540774	546.705061	-3384.604731	651.174130	533.520410	-3360.211453	631.708234	520.797849	-3461.640704	614.752378	515.660215	-3521.333186	524.547493	496.869389	-3651.474930	342.948625	464.555558	-3750.769959	341.837035	510.517949	-3723.590699	306.076560	492.302239	-3755.763597	267.241208	462.200860	-3863.486195	248.719977	502.004276	-3928.431884	290.576266	455.837294	-3855.768420	88.037835	411.658612	-3856.055327	84.694764	454.114190	-3896.414989	102.577896	509.898147	
441	2.200000	-2755.669082	1492.849528	409.946731	-2919.929466	1565.409654	321.481957	-2888.642179	1538.073512	445.839846	-3026.419682	1438.777284	372.851782	-3225.729444	1146.632608	402.862126	-2933.499111	1304.105201	340.766827	-2952.507346	1375.186120	206.248020	-3109.972838	1391.869057	103.607579	-3131.468795	1347.952547	92.406469	-3175.584832	1388.714213	83.863094	-3291.932198	1391.636665	57.306794	-3312.844877	1391.336035	125.368328	-3434.833457	1174.672567	26.701930	-3494.564300	1215.249006	3.743906	-3449.263392	1126.788898	-31.542521	-2945.757235	1414.315901	484.966950	-2904.234632	1285.937937	595.829905	-2863.668269	1270.650430	582.924766	-2876.946510	1228.726573	624.183590	-2813.506610	1106.788106	649.556593	-2844.487385	1065.143917	592.740344	-2724.331611	1280.370059	474.374302	-2667.426062	1253.076485	496.875131	-2695.270079	1348.914844	504.110826	-3160.553501	906.770507	496.910945	-3269.606610	1073.294809	396.295151	-3288.448673	1047.226376	367.797572	-3285.505195	1044.277562	426.736863	-3073.578900	820.427910	184.332155	-2991.231741	799.607354	191.478859	-2967.033409	834.801159	213.680220	-2966.274600	742.151868	197.221783	-2873.791863	515.746630	258.726500	-2946.696047	501.542993	212.552538	-2913.201063	482.938229	232.338876	-2946.190586	410.593855	266.115682	-3062.173130	292.420457	263.033082	-3151.811260	274.252136	309.156069	-2944.279834	200.816668	336.089381	-2940.942913	198.566248	289.421694	-3347.392161	718.622192	546.100299	-3354.808277	653.508161	531.482996	-3330.839909	634.130283	518.015623	-3432.515483	618.291265	514.499041	-3493.942191	529.487138	494.477823	-3628.634289	350.836347	463.326138	-3727.634117	351.531446	510.059378	-3701.196586	315.274880	491.543148	-3734.179972	276.936112	461.732021	-3841.499842	260.932349	502.079599	-3903.071832	307.599123	456.153211	-3846.203935	98.161569	411.557206	-3846.437818	94.201261	454.031341	-3885.930948	116.385923	509.406479	
442	2.205000	-2726.899305	1494.712288	407.792910	-2891.400005	1567.331714	319.699964	-2859.815300	1539.743365	443.618517	-2998.273915	1440.752277	371.306606	-3197.351132	1149.351750	403.567623	-2905.397173	1306.463599	338.710707	-2925.529612	1376.708070	204.297692	-3084.048804	1392.001427	103.233041	-3105.228264	1348.008938	92.167525	-3149.825548	1388.362753	84.117084	-3266.488424	1389.741729	58.379337	-3286.895800	1388.759079	126.543443	-3403.044853	1168.291193	29.053593	-3464.038440	1206.924455	5.959898	-3416.184236	1119.665882	-28.866708	-2916.440613	1416.168219	483.846412	-2878.547624	1286.662438	595.753286	-2837.878540	1270.730322	584.287557	-2853.178820	1229.062371	624.872248	-2792.401435	1105.655030	650.264734	-2824.511806	1064.448859	593.902867	-2699.507372	1275.363791	473.212054	-2643.311443	1246.742542	495.781998	-2668.421627	1343.196684	502.323072	-3130.311313	909.196207	496.749039	-3240.590935	1076.185521	397.768312	-3259.507294	1050.099379	369.440413	-3256.142849	1047.019447	428.295802	-3047.077122	821.790777	183.841722	-2964.810296	800.651685	190.372478	-2940.169700	835.694727	212.300151	-2939.982907	743.085240	195.561255	-2839.225360	513.832402	256.808279	-2910.789270	494.391168	210.533024	-2876.201731	478.303875	230.613664	-2904.421091	404.271630	265.372487	-3012.539398	278.697350	264.121717	-3100.783686	254.837261	310.628141	-2888.418128	196.628465	338.053244	-2885.041415	193.675188	291.555373	-3316.322438	720.398073	545.408269	-3324.233744	655.555132	529.667940	-3300.584796	636.331888	515.603631	-3402.301124	621.033540	513.646506	-3464.934588	533.234375	492.420994	-3604.751669	358.297537	462.121949	-3703.511900	361.371389	509.287880	-3677.979945	324.512759	490.594536	-3711.896068	286.940019	460.908903	-3818.949644	273.943537	501.408735	-3877.054995	325.002215	455.713099	-3835.021212	110.072069	410.961576	-3835.258898	105.551402	453.443171	-3873.829664	131.734728	508.486825	
